o MyObject_28
g MyObject_28
v 132.4536 109.8355 11.3652
v 132.3322 110.1747 19.8727
v 131.6389 109.8391 11.4493
v 131.4709 110.1808 20.1419
v 132.4536 109.8355 11.3652
v 131.6389 109.8391 11.4493
v 131.4973 109.9152 5.2739
v 132.4117 109.9023 5.2739
v 131.4973 109.9152 5.2739
v 131.6389 109.8391 11.4493
v 131.6463 110.6362 11.4296
v 131.4998 110.6639 5.2739
v 131.6463 110.6362 11.4296
v 131.6389 109.8391 11.4493
v 131.5671 110.8300 19.9555
v 131.5470 111.0909 19.8714
v 131.5784 111.0331 20.1420
v 131.5600 110.5897 20.0065
v 131.5803 110.5330 19.8077
v 131.4709 110.1808 20.1419
v 132.3322 110.1747 19.8727
v 131.8078 110.4952 19.9640
v 131.6463 110.6362 11.4296
v 131.5470 111.0909 19.8714
v 132.2083 111.0857 19.6290
v 131.4709 110.1808 20.1419
v 131.5555 110.4911 20.0053
v 131.6389 109.8391 11.4493
v 131.5803 110.5330 19.8077
v 131.8127 110.5550 19.9551
v 131.5671 110.8300 19.9555
v 131.5600 110.5897 20.0065
v 131.5671 110.8300 19.9555
v 131.8127 110.5550 19.9551
v 132.2646 110.8247 19.7167
v 132.2621 110.4863 19.7895
v 131.9925 111.0443 20.0473
v 132.2747 111.0277 19.9039
v 131.5671 110.8300 19.9555
v 131.9925 111.0443 20.0473
v 131.5784 111.0331 20.1420
v 131.5784 111.0331 20.1420
v 131.9925 111.0443 20.0473
v 131.5470 111.0909 19.8714
v 132.2646 110.8247 19.7167
v 132.2621 110.4863 19.7895
v 132.4536 109.8355 11.3652
v 132.3322 110.1747 19.8727
v 132.3384 110.6313 11.3582
v 132.3384 110.6313 11.3582
v 132.4536 109.8355 11.3652
v 132.4117 109.9023 5.2739
v 132.3455 110.7224 5.2739
v 132.2621 110.4863 19.7895
v 131.8127 110.5550 19.9551
v 131.8093 110.5251 19.8852
v 132.3384 110.6313 11.3582
v 132.3455 110.7224 5.2739
v 131.4998 110.6639 5.2739
v 131.6463 110.6362 11.4296
v 131.5600 110.5897 20.0065
v 131.5803 110.5330 19.8077
v 131.5470 111.0909 19.8714
v 131.9925 111.0443 20.0473
v 132.2083 111.0857 19.6290
v 132.2747 111.0277 19.9039
v 132.2083 111.0857 19.6290
v 132.2747 111.0277 19.9039
v 132.2646 110.8247 19.7167
v 132.3384 110.6313 11.3582
v 132.2083 111.0857 19.6290
v 132.3384 110.6313 11.3582
v 131.6463 110.6362 11.4296
v 131.5555 110.4911 20.0053
v 131.8078 110.4952 19.9640
v 131.5803 110.5330 19.8077
v 131.8093 110.5251 19.8852
v 132.2621 110.4863 19.7895
v 131.4709 110.1808 20.1419
v 132.3322 110.1747 19.8727
v 130.8024 111.4835 1.5972
v 130.9187 111.3071 1.7997
v 132.8271 111.5830 1.5420
v 132.8222 111.3348 1.8074
v 132.7818 111.7328 -0.0907
v 130.7486 111.6343 -0.0907
v 130.5661 111.1840 1.5870
v 130.6808 111.1149 1.7946
v 133.0627 111.3438 1.5357
v 132.8222 111.3348 1.8074
v 130.9187 111.3071 1.7997
v 132.9092 111.3749 2.3300
v 132.9092 111.3749 2.3300
v 130.9187 111.3071 1.7997
v 132.8197 111.2620 2.8526
v 130.6808 111.1149 1.7946
v 130.7969 111.2670 2.9518
v 130.9406 111.1694 3.0719
v 132.8197 111.2620 2.8526
v 130.9406 111.1694 3.0719
v 132.9742 111.3471 2.9952
v 132.8455 111.2042 3.5720
v 130.9307 111.2217 3.4476
v 131.0304 111.0814 5.0611
v 132.7882 111.1118 5.1187
v 131.0900 111.0255 5.2161
v 132.7295 111.0531 5.3015
v 132.7555 109.5099 5.3015
v 131.1161 109.4822 5.2161
v 130.8674 109.4551 1.7592
v 130.7558 109.3005 1.5350
v 132.9478 109.3707 3.5469
v 132.9092 111.3749 2.3300
v 132.8197 111.2620 2.8526
v 133.0118 109.2673 2.3443
v 132.9476 109.2905 2.8571
v 130.8925 109.3533 3.6458
v 130.8925 109.3533 3.6458
v 130.7071 109.2521 -0.0907
v 130.7558 109.3005 1.5350
v 130.7071 109.2521 -0.0907
v 133.1000 109.3367 1.4274
v 133.1470 109.2930 -0.0907
v 133.1000 109.3367 1.4274
v 133.1470 109.2930 -0.0907
v 133.0627 111.3438 1.5357
v 133.1000 109.3367 1.4274
v 133.0627 111.3438 1.5357
v 132.9173 109.4872 1.6824
v 132.8222 111.3348 1.8074
v 132.9173 109.4872 1.6824
v 132.8222 111.3348 1.8074
v 132.9092 111.3749 2.3300
v 133.0118 109.2673 2.3443
v 133.1000 109.3367 1.4274
v 132.9173 109.4872 1.6824
v 130.7558 109.3005 1.5350
v 131.0304 111.0814 5.0611
v 131.0580 109.4244 5.0533
v 131.0900 111.0255 5.2161
v 131.1161 109.4822 5.2161
v 130.8925 109.3533 3.6458
v 132.8155 109.4538 5.1306
v 132.7555 109.5099 5.3015
v 132.9478 109.3707 3.5469
v 132.9478 109.3707 3.5469
v 130.8925 109.3533 3.6458
v 132.8716 109.4012 3.0916
v 130.9123 109.2943 3.1484
v 130.9123 109.2943 3.1484
v 130.8925 109.3533 3.6458
v 130.9406 111.1694 3.0719
v 132.7295 111.0531 5.3015
v 132.7882 111.1118 5.1187
v 132.9478 109.3707 3.5469
v 132.8716 109.4012 3.0916
v 132.9742 111.3471 2.9952
v 132.8197 111.2620 2.8526
v 132.8197 111.2620 2.8526
v 132.8716 109.4012 3.0916
v 132.9476 109.2905 2.8571
v 130.7969 111.2670 2.9518
v 130.9645 109.4233 3.0226
v 130.9406 111.1694 3.0719
v 130.6808 111.1149 1.7946
v 130.8674 109.4551 1.7592
v 130.9406 111.1694 3.0719
v 130.9645 109.4233 3.0226
v 130.9123 109.2943 3.1484
v 130.9645 109.4233 3.0226
v 130.8674 109.4551 1.7592
v 133.0118 109.2673 2.3443
v 132.9476 109.2905 2.8571
v 132.9173 109.4872 1.6824
v 132.9173 109.4872 1.6824
v 130.8674 109.4551 1.7592
v 130.7558 109.3005 1.5350
v 130.5126 111.3290 -0.0907
v 130.7071 109.2521 -0.0907
v 130.5661 111.1840 1.5870
v 130.8024 111.4835 1.5972
v 130.7486 111.6343 -0.0907
v 133.1097 111.4945 -0.0907
v 133.0627 111.3438 1.5357
v 133.1470 109.2930 -0.0907
v 132.8271 111.5830 1.5420
v 132.7818 111.7328 -0.0907
v 132.8716 109.4012 3.0916
v 130.9123 109.2943 3.1484
v 130.9645 109.4233 3.0226
v 132.8716 109.4012 3.0916
v 130.9645 109.4233 3.0226
v 132.9476 109.2905 2.8571
v 132.9478 109.3707 3.5469
v 132.8455 111.2042 3.5720
v 132.8155 109.4538 5.1306
v 132.7882 111.1118 5.1187
v 132.1577 111.8857 17.0330
v 132.1136 116.6313 17.4323
v 132.1449 111.9137 17.9921
v 132.1577 111.8857 17.0330
v 132.1449 111.9137 17.9921
v 132.3261 107.3016 17.8480
v 132.0606 116.5735 18.3966
v 132.3818 107.2513 16.8837
v 132.1449 111.9137 17.9921
v 132.0606 116.5735 18.3966
v 131.5677 116.5382 18.3902
v 131.6194 111.9088 17.9852
v 132.3818 107.2513 16.8837
v 132.3261 107.3016 17.8480
v 131.8428 107.2864 16.8768
v 131.5677 116.5382 18.3902
v 131.5732 116.5901 17.4254
v 131.6194 111.9088 17.9852
v 131.6306 111.8706 17.0262
v 131.6194 111.9088 17.9852
v 131.6306 111.8706 17.0262
v 131.8345 107.3393 17.8417
v 131.8428 107.2864 16.8768
v 131.8345 107.3393 17.8417
v 131.8428 107.2864 16.8768
v 132.3261 107.3016 17.8480
v 131.5732 116.5901 17.4254
v 131.5677 116.5382 18.3902
v 132.0606 116.5735 18.3966
v 132.1136 116.6313 17.4323
v 131.6194 111.9088 17.9852
v 131.8345 107.3393 17.8417
v 132.1449 111.9137 17.9921
v 132.3261 107.3016 17.8480
vn 0.0000 -1.0000 0.0469
vn 0.0000 -1.0000 0.0469
vn 0.0000 -1.0000 0.0469
vn 0.0000 -1.0000 0.0469
vn -0.0078 -1.0000 -0.0156
vn -0.0078 -1.0000 -0.0156
vn -0.0078 -1.0000 -0.0156
vn -0.0078 -1.0000 -0.0156
vn -1.0000 0.0078 0.0234
vn -1.0000 0.0078 0.0234
vn -1.0000 0.0078 0.0234
vn -1.0000 0.0078 0.0234
vn -1.0000 -0.0313 -0.0078
vn -1.0000 0.0547 -0.0156
vn -1.0000 -0.0313 -0.0078
vn -1.0000 -0.0781 -0.0078
vn -1.0000 -0.0781 -0.0078
vn -0.9766 -0.2109 0.0156
vn -1.0000 -0.0313 -0.0078
vn 0.3203 0.2500 0.9219
vn 0.3203 0.2500 0.9219
vn 0.1797 0.7031 0.6953
vn -0.0078 0.9922 -0.0547
vn -0.0078 0.9922 -0.0547
vn -0.0078 0.9922 -0.0547
vn -0.9688 0.2500 -0.0313
vn -0.9531 0.3125 -0.0391
vn -1.0000 0.0547 -0.0156
vn -1.0000 -0.0313 -0.0078
vn 0.2266 0.1953 0.9609
vn 0.2266 0.1953 0.9609
vn 0.2266 0.1953 0.9609
vn 0.3438 -0.2656 0.9063
vn 0.3438 0.2422 0.9141
vn 0.3438 -0.2656 0.9063
vn 0.3438 0.2422 0.9141
vn 0.2500 -0.7031 0.6719
vn 0.2500 -0.7031 0.6719
vn 0.1875 -0.6719 0.7266
vn 0.1875 -0.6719 0.7266
vn 0.1875 -0.6719 0.7266
vn 0.0703 0.9844 0.1641
vn 0.0703 0.9844 0.1641
vn 0.0703 0.9844 0.1641
vn 0.9922 0.1719 0.0000
vn 0.9922 0.1250 0.0156
vn 0.9922 0.1250 0.0156
vn 0.9922 0.1250 0.0156
vn 0.9922 0.1719 0.0000
vn 0.9922 0.1094 -0.0078
vn 0.9922 0.1094 -0.0078
vn 0.9922 0.1094 -0.0078
vn 0.9922 0.1094 -0.0078
vn 0.0156 -0.9219 0.3984
vn -0.0469 -0.9375 0.3516
vn -0.0469 -0.9375 0.3516
vn -0.0313 0.9922 0.0156
vn -0.0313 0.9922 0.0156
vn -0.0313 0.9922 0.0156
vn -0.0313 0.9922 0.0156
vn -0.1016 -0.9453 0.3047
vn -0.1016 -0.9453 0.3047
vn 0.0703 0.9844 0.1641
vn 0.0703 0.9844 0.1641
vn 0.0703 0.9844 0.1641
vn 0.0703 0.9844 0.1641
vn 0.9844 0.2109 -0.0078
vn 0.9844 0.2109 -0.0078
vn 0.9922 0.1719 0.0000
vn 0.9922 0.1719 0.0000
vn -0.0078 0.9922 -0.0547
vn -0.0078 0.9922 -0.0547
vn -0.0078 0.9922 -0.0547
vn 0.0859 0.7500 0.6641
vn 0.1797 0.7031 0.6953
vn -0.0078 0.9688 0.2578
vn 0.0781 0.9531 0.3047
vn 0.2656 0.6563 0.7109
vn 0.1563 0.3672 0.9219
vn 0.3203 0.2500 0.9219
vn -0.3984 0.8125 0.4219
vn -0.3047 0.6641 0.6875
vn 0.3359 0.8594 0.3906
vn 0.5234 0.4922 0.7031
vn 0.3281 0.9453 0.0938
vn -0.4609 0.8828 0.0938
vn -0.9063 0.2656 0.3438
vn -0.7734 0.2266 0.6016
vn 0.8594 0.3750 0.3672
vn -0.0156 0.9922 -0.0781
vn -0.0156 0.9922 -0.0781
vn -0.0156 0.9922 -0.0781
vn -0.0234 0.9922 0.0938
vn -0.3438 0.9375 0.0313
vn 0.0000 0.9297 0.3672
vn -0.9219 0.3828 0.0313
vn -0.6172 0.6641 0.4141
vn -0.3672 0.4531 0.8125
vn -0.0938 0.8984 -0.4375
vn -0.7109 0.6563 -0.2656
vn 0.7813 0.5547 -0.3125
vn 0.6797 0.7266 0.1641
vn -0.7109 0.7031 0.0781
vn -0.6797 0.6719 0.2891
vn 0.6719 0.6953 0.2734
vn -0.4688 0.4297 0.7734
vn 0.4219 0.4609 0.7891
vn 0.4375 -0.4453 0.7891
vn -0.4531 -0.4453 0.7734
vn -0.8750 -0.1016 0.4844
vn -0.9609 -0.1016 0.2656
vn 0.9922 -0.0078 0.0313
vn 0.9922 0.0547 0.0000
vn 0.9844 0.0625 0.2188
vn 0.7188 -0.6875 -0.1172
vn 0.6875 -0.6641 0.3203
vn -1.0000 0.0156 -0.0391
vn -0.7031 -0.7031 0.1016
vn -0.9922 -0.0938 0.0313
vn 0.0234 -1.0000 0.0313
vn 0.0234 -1.0000 0.0313
vn 0.0234 -1.0000 0.0313
vn 0.0234 -1.0000 0.0313
vn 0.9453 0.0000 0.3516
vn 0.9922 0.0156 0.0313
vn 0.8594 0.3750 0.3672
vn 0.9453 0.0000 0.3516
vn 0.8594 0.3750 0.3672
vn 0.7891 -0.0078 0.6328
vn 0.5234 0.4922 0.7031
vn 0.7109 -0.6328 -0.3281
vn 0.9922 0.0547 -0.1484
vn 0.9922 0.0547 0.0000
vn 0.7188 -0.6875 -0.1172
vn 0.0469 -0.8438 0.5469
vn 0.0469 -0.8438 0.5469
vn 0.0469 -0.8438 0.5469
vn -0.6797 0.6719 0.2891
vn -0.6719 -0.6875 0.2891
vn -0.4688 0.4297 0.7734
vn -0.4531 -0.4453 0.7734
vn -0.7031 -0.7031 0.1016
vn 0.7031 -0.6719 0.2734
vn 0.4375 -0.4453 0.7891
vn 0.7266 -0.6875 0.0859
vn 0.0391 -1.0000 0.0313
vn 0.0391 -1.0000 0.0313
vn 0.0391 -1.0000 0.0313
vn 0.0391 -1.0000 0.0313
vn -0.9766 0.0078 -0.2188
vn -1.0000 0.0156 -0.0391
vn -0.7109 0.6563 -0.2656
vn 0.4219 0.4609 0.7891
vn 0.6719 0.6953 0.2734
vn 0.9922 -0.0078 0.0313
vn 0.8906 -0.0703 -0.4688
vn 0.7813 0.5547 -0.3125
vn 0.7031 -0.0703 -0.7188
vn 0.9844 0.0625 0.2188
vn 0.9688 0.0625 0.2813
vn 0.6875 -0.6641 0.3203
vn -0.6172 0.6641 0.4141
vn -0.8828 -0.0703 0.4609
vn -0.3672 0.4531 0.8125
vn -0.9219 0.3828 0.0313
vn -0.9922 -0.1016 0.0938
vn -0.7109 0.6563 -0.2656
vn -0.9219 0.0000 -0.3906
vn -0.9766 0.0078 -0.2188
vn -0.0547 -0.9766 0.2188
vn -0.0391 -0.9844 -0.1641
vn 0.7188 -0.6875 -0.1172
vn 0.6875 -0.6641 0.3203
vn 0.7109 -0.6328 -0.3281
vn 0.0469 -0.8438 0.5469
vn 0.0469 -0.8438 0.5469
vn 0.0469 -0.8438 0.5469
vn -0.9609 0.2813 0.0625
vn -0.9922 -0.0938 0.0313
vn -0.9063 0.2656 0.3438
vn -0.3984 0.8125 0.4219
vn -0.4609 0.8828 0.0938
vn 0.9141 0.4297 0.0625
vn 0.8594 0.3750 0.3672
vn 0.9922 0.0156 0.0313
vn 0.3359 0.8594 0.3906
vn 0.3281 0.9453 0.0938
vn 0.0234 -0.7031 -0.7188
vn 0.0234 -0.7031 -0.7188
vn 0.0234 -0.7031 -0.7188
vn -0.0234 -0.9063 0.4219
vn -0.0547 -0.9766 0.2188
vn 0.6875 -0.6641 0.3203
vn 0.7266 -0.6875 0.0859
vn 0.6797 0.7266 0.1641
vn 0.7031 -0.6719 0.2734
vn 0.6719 0.6953 0.2734
vn 0.9922 0.0078 0.0391
vn 0.9922 0.0078 0.0391
vn 0.9922 0.0078 0.0391
vn 0.9922 0.0391 0.0391
vn 0.9922 0.0391 0.0391
vn 0.9922 0.0391 0.0391
vn 0.9922 0.0078 0.0391
vn 0.9922 0.0391 0.0391
vn -0.0078 -0.0859 0.9922
vn -0.0078 -0.0859 0.9922
vn -0.0078 -0.0859 0.9922
vn -0.0078 -0.0859 0.9922
vn -0.0703 -1.0000 0.0547
vn -0.0703 -1.0000 0.0547
vn -0.0703 -1.0000 0.0547
vn -1.0000 -0.0078 -0.0156
vn -1.0000 -0.0078 -0.0156
vn -1.0000 -0.0078 -0.0156
vn -1.0000 -0.0078 -0.0156
vn -1.0000 -0.0469 -0.0156
vn -1.0000 -0.0469 -0.0156
vn -1.0000 -0.0469 -0.0156
vn -1.0000 -0.0469 -0.0156
vn -0.0703 -1.0000 0.0547
vn -0.0703 -1.0000 0.0547
vn -0.0703 -1.0000 0.0547
vn -0.0781 0.9922 0.0547
vn -0.0781 0.9922 0.0547
vn -0.0781 0.9922 0.0547
vn -0.0781 0.9922 0.0547
vn -0.0156 -0.0313 0.9922
vn -0.0156 -0.0313 0.9922
vn -0.0156 -0.0313 0.9922
vn -0.0156 -0.0313 0.9922
vt 0.0176 0.6875 0.0000
vt 0.1328 0.6856 0.0000
vt 0.0176 0.6641 0.0000
vt 0.1348 0.6641 0.0000
vt 0.0176 0.6875 0.0000
vt 0.0176 0.6641 0.0000
vt 0.1309 0.6621 0.0000
vt 0.1309 0.6875 0.0000
vt 0.1309 0.6621 0.0000
vt 0.0176 0.6641 0.0000
vt 0.0156 0.6426 0.0000
vt 0.1328 0.6406 0.0000
vt 0.0156 0.6426 0.0000
vt 0.0176 0.6641 0.0000
vt 0.1328 0.6446 0.0000
vt 0.1328 0.6406 0.0000
vt 0.1348 0.6426 0.0000
vt 0.1328 0.6504 0.0000
vt 0.1328 0.6524 0.0000
vt 0.1348 0.6641 0.0000
vt 0.1465 0.6621 0.0000
vt 0.1367 0.6543 0.0000
vt 0.0156 0.6426 0.0000
vt 0.1328 0.6406 0.0000
vt 0.1289 0.6602 0.0000
vt 0.1348 0.6641 0.0000
vt 0.1348 0.6543 0.0000
vt 0.0176 0.6641 0.0000
vt 0.1328 0.6524 0.0000
vt 0.1367 0.6504 0.0000
vt 0.1328 0.6446 0.0000
vt 0.1328 0.6504 0.0000
vt 0.1328 0.6446 0.0000
vt 0.1367 0.6504 0.0000
vt 0.1484 0.6465 0.0000
vt 0.1484 0.6563 0.0000
vt 0.1406 0.6426 0.0000
vt 0.1484 0.6426 0.0000
vt 0.1328 0.6446 0.0000
vt 0.1406 0.6426 0.0000
vt 0.1348 0.6426 0.0000
vt 0.1348 0.6426 0.0000
vt 0.1348 0.6563 0.0000
vt 0.1328 0.6406 0.0000
vt 0.1309 0.6660 0.0000
vt 0.1309 0.6758 0.0000
vt 0.0176 0.6875 0.0000
vt 0.1328 0.6856 0.0000
vt 0.0156 0.6641 0.0000
vt 0.0156 0.6641 0.0000
vt 0.0176 0.6875 0.0000
vt 0.1309 0.6875 0.0000
vt 0.1309 0.6641 0.0000
vt 0.1484 0.6563 0.0000
vt 0.1367 0.6504 0.0000
vt 0.1367 0.6524 0.0000
vt 0.0156 0.6641 0.0000
vt 0.1309 0.6641 0.0000
vt 0.1328 0.6406 0.0000
vt 0.0156 0.6426 0.0000
vt 0.1328 0.6504 0.0000
vt 0.1328 0.6524 0.0000
vt 0.1328 0.6406 0.0000
vt 0.1348 0.6563 0.0000
vt 0.1289 0.6602 0.0000
vt 0.1328 0.6621 0.0000
vt 0.1289 0.6602 0.0000
vt 0.1328 0.6621 0.0000
vt 0.1309 0.6660 0.0000
vt 0.0156 0.6641 0.0000
vt 0.1289 0.6602 0.0000
vt 0.0156 0.6641 0.0000
vt 0.0156 0.6426 0.0000
vt 0.1348 0.6543 0.0000
vt 0.1367 0.6543 0.0000
vt 0.1328 0.6524 0.0000
vt 0.1367 0.6524 0.0000
vt 0.1484 0.6563 0.0000
vt 0.1348 0.6641 0.0000
vt 0.1465 0.6621 0.0000
vt 0.7305 0.4336 0.0000
vt 0.7305 0.4375 0.0000
vt 0.6894 0.4336 0.0000
vt 0.6855 0.4395 0.0000
vt 0.6894 0.3965 0.0000
vt 0.7305 0.3965 0.0000
vt 0.7383 0.4336 0.0000
vt 0.7363 0.4375 0.0000
vt 0.6855 0.4336 0.0000
vt 0.6855 0.4395 0.0000
vt 0.7305 0.4375 0.0000
vt 0.6855 0.4512 0.0000
vt 0.6855 0.4512 0.0000
vt 0.7305 0.4375 0.0000
vt 0.6855 0.4629 0.0000
vt 0.7363 0.4375 0.0000
vt 0.7305 0.4629 0.0000
vt 0.7305 0.4668 0.0000
vt 0.6855 0.4629 0.0000
vt 0.7305 0.4668 0.0000
vt 0.6875 0.4648 0.0000
vt 0.6875 0.4785 0.0000
vt 0.7305 0.4746 0.0000
vt 0.7305 0.5098 0.0000
vt 0.6894 0.5117 0.0000
vt 0.7305 0.5176 0.0000
vt 0.6894 0.5176 0.0000
vt 0.6894 0.5567 0.0000
vt 0.7305 0.5567 0.0000
vt 0.7734 0.4395 0.0000
vt 0.7754 0.4336 0.0000
vt 0.7305 0.4766 0.0000
vt 0.6855 0.4512 0.0000
vt 0.6855 0.4629 0.0000
vt 0.7305 0.4492 0.0000
vt 0.7305 0.4609 0.0000
vt 0.7715 0.4805 0.0000
vt 0.7715 0.4805 0.0000
vt 0.7773 0.3984 0.0000
vt 0.7754 0.4336 0.0000
vt 0.7773 0.3984 0.0000
vt 0.7305 0.4297 0.0000
vt 0.7305 0.3965 0.0000
vt 0.7305 0.4297 0.0000
vt 0.7305 0.3965 0.0000
vt 0.6855 0.4336 0.0000
vt 0.7305 0.4297 0.0000
vt 0.6855 0.4336 0.0000
vt 0.7305 0.4356 0.0000
vt 0.6855 0.4395 0.0000
vt 0.7305 0.4356 0.0000
vt 0.6855 0.4395 0.0000
vt 0.6855 0.4512 0.0000
vt 0.7305 0.4492 0.0000
vt 0.7305 0.4297 0.0000
vt 0.7305 0.4356 0.0000
vt 0.7754 0.4336 0.0000
vt 0.7305 0.5098 0.0000
vt 0.7695 0.5117 0.0000
vt 0.7305 0.5176 0.0000
vt 0.7695 0.5196 0.0000
vt 0.7715 0.4805 0.0000
vt 0.7305 0.5098 0.0000
vt 0.7305 0.5176 0.0000
vt 0.7305 0.4766 0.0000
vt 0.7305 0.4766 0.0000
vt 0.7715 0.4805 0.0000
vt 0.7305 0.4668 0.0000
vt 0.7715 0.4707 0.0000
vt 0.7715 0.4707 0.0000
vt 0.7715 0.4805 0.0000
vt 0.7305 0.4668 0.0000
vt 0.6894 0.5176 0.0000
vt 0.6894 0.5117 0.0000
vt 0.7305 0.4766 0.0000
vt 0.7305 0.4668 0.0000
vt 0.6875 0.4648 0.0000
vt 0.6855 0.4629 0.0000
vt 0.6855 0.4629 0.0000
vt 0.7305 0.4668 0.0000
vt 0.7305 0.4609 0.0000
vt 0.7305 0.4629 0.0000
vt 0.7715 0.4668 0.0000
vt 0.7305 0.4668 0.0000
vt 0.7363 0.4375 0.0000
vt 0.7734 0.4395 0.0000
vt 0.7305 0.4668 0.0000
vt 0.7715 0.4668 0.0000
vt 0.7715 0.4707 0.0000
vt 0.7715 0.4668 0.0000
vt 0.7734 0.4395 0.0000
vt 0.7305 0.4492 0.0000
vt 0.7305 0.4609 0.0000
vt 0.7305 0.4356 0.0000
vt 0.7305 0.4356 0.0000
vt 0.7734 0.4395 0.0000
vt 0.7754 0.4336 0.0000
vt 0.7383 0.3965 0.0000
vt 0.7773 0.3984 0.0000
vt 0.7383 0.4336 0.0000
vt 0.7305 0.4336 0.0000
vt 0.7305 0.3965 0.0000
vt 0.6836 0.3965 0.0000
vt 0.6855 0.4336 0.0000
vt 0.7305 0.3965 0.0000
vt 0.6894 0.4336 0.0000
vt 0.6894 0.3965 0.0000
vt 0.7305 0.4668 0.0000
vt 0.7715 0.4707 0.0000
vt 0.7715 0.4668 0.0000
vt 0.7305 0.4668 0.0000
vt 0.7715 0.4668 0.0000
vt 0.7305 0.4609 0.0000
vt 0.7305 0.4766 0.0000
vt 0.6875 0.4785 0.0000
vt 0.7305 0.5098 0.0000
vt 0.6894 0.5117 0.0000
vt 0.0156 0.6836 0.0000
vt 0.1309 0.6856 0.0000
vt 0.0176 0.6582 0.0000
vt 0.0156 0.6836 0.0000
vt 0.0176 0.6582 0.0000
vt 0.1309 0.6582 0.0000
vt 0.1309 0.6582 0.0000
vt 0.1309 0.6856 0.0000
vt 0.0176 0.6582 0.0000
vt 0.1309 0.6582 0.0000
vt 0.1309 0.6406 0.0000
vt 0.0176 0.6406 0.0000
vt 0.1484 0.6660 0.0000
vt 0.1309 0.6582 0.0000
vt 0.1504 0.6348 0.0000
vt 0.1309 0.6406 0.0000
vt 0.1328 0.6211 0.0000
vt 0.0176 0.6406 0.0000
vt 0.0176 0.6211 0.0000
vt 0.0176 0.6406 0.0000
vt 0.0176 0.6211 0.0000
vt 0.1309 0.6406 0.0000
vt 0.1328 0.6211 0.0000
vt 0.1309 0.6406 0.0000
vt 0.1504 0.6348 0.0000
vt 0.1309 0.6582 0.0000
vt 0.1504 0.6348 0.0000
vt 0.1309 0.6406 0.0000
vt 0.1309 0.6582 0.0000
vt 0.1484 0.6660 0.0000
vt 0.0176 0.6406 0.0000
vt 0.1309 0.6406 0.0000
vt 0.0176 0.6582 0.0000
vt 0.1309 0.6582 0.0000
f 1/1/1 2/2/2 3/3/3
f 3/3/3 2/2/2 4/4/4
f 5/5/5 6/6/6 7/7/7
f 5/5/5 7/7/7 8/8/8
f 9/9/9 10/10/10 11/11/11
f 9/9/9 11/11/11 12/12/12
f 13/13/13 14/14/14 15/15/15
f 13/13/13 15/15/15 16/16/16
f 16/16/16 15/15/15 17/17/17
f 15/15/15 14/14/14 18/18/18
f 18/18/18 14/14/14 19/19/19
f 20/20/20 21/21/21 22/22/22
f 23/23/23 24/24/24 25/25/25
f 26/26/26 27/27/27 28/28/28
f 28/28/28 27/27/27 29/29/29
f 30/30/30 31/31/31 32/32/32
f 33/33/33 34/34/34 35/35/35
f 35/35/35 34/34/34 36/36/36
f 33/33/33 35/35/35 37/37/37
f 37/37/37 35/35/35 38/38/38
f 39/39/39 40/40/40 41/41/41
f 42/42/42 43/43/43 44/44/44
f 45/45/45 46/46/46 47/47/47
f 47/47/47 46/46/46 48/48/48
f 45/45/45 47/47/47 49/49/49
f 50/50/50 51/51/51 52/52/52
f 50/50/50 52/52/52 53/53/53
f 54/54/54 55/55/55 56/56/56
f 57/57/57 58/58/58 59/59/59
f 57/57/57 59/59/59 60/60/60
f 55/55/55 61/61/61 62/62/62
f 56/56/56 55/55/55 62/62/62
f 63/63/63 64/64/64 65/65/65
f 65/65/65 64/64/64 66/66/66
f 67/67/67 68/68/68 69/69/69
f 67/67/67 69/69/69 70/70/70
f 71/71/71 72/72/72 73/73/73
f 74/74/74 75/75/75 76/76/76
f 76/76/76 75/75/75 77/77/77
f 77/77/77 75/75/75 78/78/78
f 75/75/75 74/74/74 79/79/79
f 78/78/78 75/75/75 80/80/80
f 81/81/81 82/82/82 83/83/83
f 83/83/83 82/82/82 84/84/84
f 81/81/81 83/83/83 85/85/85
f 81/81/81 85/85/85 86/86/86
f 82/82/82 81/81/81 87/87/87
f 82/82/82 87/87/87 88/88/88
f 83/83/83 84/84/84 89/89/89
f 90/90/90 91/91/91 92/92/92
f 93/93/93 94/94/94 95/95/95
f 94/94/94 96/96/96 97/97/97
f 95/95/95 94/94/94 97/97/97
f 95/95/95 97/97/97 98/98/98
f 99/99/99 100/100/100 101/101/101
f 101/101/101 100/100/100 102/102/102
f 102/102/102 100/100/100 103/103/103
f 102/102/102 103/103/103 104/104/104
f 102/102/102 104/104/104 105/105/105
f 105/105/105 104/104/104 106/106/106
f 105/105/105 106/106/106 107/107/107
f 107/107/107 106/106/106 108/108/108
f 108/108/108 106/106/106 109/109/109
f 88/88/88 87/87/87 110/110/110
f 110/110/110 87/87/87 111/111/111
f 101/101/101 102/102/102 112/112/112
f 113/113/113 114/114/114 115/115/115
f 115/115/115 114/114/114 116/116/116
f 103/103/103 100/100/100 117/117/117
f 104/104/104 103/103/103 118/118/118
f 111/111/111 87/87/87 119/119/119
f 120/120/120 121/121/121 122/122/122
f 122/122/122 121/121/121 123/123/123
f 124/124/124 125/125/125 126/126/126
f 127/127/127 128/128/128 129/129/129
f 129/129/129 128/128/128 130/130/130
f 131/131/131 132/132/132 133/133/133
f 131/131/131 133/133/133 134/134/134
f 135/135/135 136/136/136 137/137/137
f 138/138/138 139/139/139 140/140/140
f 140/140/140 139/139/139 141/141/141
f 139/139/139 138/138/138 142/142/142
f 141/141/141 139/139/139 143/143/143
f 141/141/141 143/143/143 144/144/144
f 139/139/139 142/142/142 145/145/145
f 143/143/143 139/139/139 145/145/145
f 146/146/146 147/147/147 148/148/148
f 148/148/148 147/147/147 149/149/149
f 150/150/150 151/151/151 152/152/152
f 144/144/144 143/143/143 153/153/153
f 153/153/153 143/143/143 154/154/154
f 155/155/155 156/156/156 157/157/157
f 157/157/157 156/156/156 158/158/158
f 159/159/159 160/160/160 161/161/161
f 162/162/162 163/163/163 164/164/164
f 163/163/163 162/162/162 165/165/165
f 163/163/163 165/165/165 166/166/166
f 167/167/167 168/168/168 169/169/169
f 170/170/170 171/171/171 172/172/172
f 170/170/170 172/172/172 173/173/173
f 172/172/172 171/171/171 174/174/174
f 175/175/175 176/176/176 177/177/177
f 178/178/178 179/179/179 180/180/180
f 178/178/178 180/180/180 181/181/181
f 178/178/178 181/181/181 182/182/182
f 183/183/183 184/184/184 185/185/185
f 184/184/184 183/183/183 186/186/186
f 186/186/186 183/183/183 187/187/187
f 188/188/188 189/189/189 190/190/190
f 191/191/191 192/192/192 193/193/193
f 194/194/194 195/195/195 196/196/196
f 196/196/196 195/195/195 197/197/197
f 198/198/198 199/199/199 200/200/200
f 201/201/201 202/202/202 203/203/203
f 200/200/200 199/199/199 204/204/204
f 201/201/201 203/203/203 205/205/205
f 206/206/206 207/207/207 208/208/208
f 206/206/206 208/208/208 209/209/209
f 210/210/210 211/211/211 212/212/212
f 213/213/213 214/214/214 215/215/215
f 215/215/215 214/214/214 216/216/216
f 217/217/217 218/218/218 219/219/219
f 219/219/219 218/218/218 220/220/220
f 221/221/221 222/222/222 223/223/223
f 224/224/224 225/225/225 226/226/226
f 224/224/224 226/226/226 227/227/227
f 228/228/228 229/229/229 230/230/230
f 230/230/230 229/229/229 231/231/231
