o MyObject_18
g MyObject_18
v 169.9597 49.4086 4.5270
v 171.1079 49.0377 4.7769
v 170.3267 51.4525 5.0766
v 173.6448 49.7372 5.4737
v 171.7944 52.8275 5.7068
v 173.6259 53.8633 6.2892
v 171.2648 48.1700 4.7005
v 169.3737 48.8391 4.1747
v 175.9927 52.3950 6.2553
v 176.9313 51.7123 6.3631
v 174.0289 48.4576 5.5964
v 176.9445 53.7094 6.3782
v 176.4230 53.7370 6.3695
v 169.3052 50.3721 4.0918
v 176.2490 54.8785 6.1949
v 176.9854 55.8075 6.2878
v 176.2197 56.9628 6.0605
v 174.9889 57.3159 5.3228
v 175.3964 59.8645 5.1542
v 174.0361 60.0950 4.3100
v 173.3727 54.7730 5.5390
v 173.3727 54.7730 5.5390
v 176.9581 60.2104 6.2256
v 169.8170 52.0845 4.6116
v 171.0787 53.7332 5.0835
v 172.9563 57.1431 3.4953
v 168.0364 50.3510 2.7067
v 167.5884 49.4418 2.3131
v 169.4214 55.3254 2.5830
v 175.3661 61.9879 3.8735
v 167.7880 51.0850 2.1345
v 167.5884 49.4418 2.3131
v 171.7250 56.0316 3.3612
v 174.4378 61.5417 2.9106
v 168.5000 52.8583 2.2081
v 172.3932 57.4570 2.0941
v 174.1644 62.0728 1.9824
v 173.2112 60.7936 1.9925
v 171.3397 56.8120 1.9558
v 172.3303 60.3735 -0.4836
v 168.8926 55.2828 0.9697
v 167.7783 51.1708 0.7466
v 168.4764 52.9089 0.1921
v 172.3309 60.3651 -0.4824
v 171.8239 57.8283 -0.3468
v 172.3932 57.4570 2.0941
v 171.0181 56.8171 0.5379
v 171.3397 56.8120 1.9558
v 168.8926 55.2828 0.9697
v 171.8239 57.8283 -0.3468
vn -0.4531 -0.1094 0.8906
vn -0.2656 -0.1563 0.9531
vn -0.4297 -0.0703 0.9063
vn -0.2031 -0.1094 0.9766
vn -0.3984 0.1328 0.9141
vn -0.2188 0.1172 0.9766
vn -0.2891 -0.1172 0.9531
vn -0.5313 -0.0469 0.8516
vn -0.1406 -0.0781 0.9922
vn -0.1641 -0.0391 0.9922
vn -0.2578 -0.0469 0.9688
vn -0.1094 0.0234 0.9922
vn -0.1094 0.0703 0.9922
vn -0.6875 0.0469 0.7344
vn -0.2266 0.1875 0.9609
vn -0.2734 0.0625 0.9609
vn -0.4766 0.0781 0.8828
vn -0.4844 0.1875 0.8594
vn -0.6016 0.3203 0.7344
vn -0.7109 0.3438 0.6172
vn -0.4766 0.5000 0.7266
vn -0.3203 0.3750 0.8750
vn -0.6094 0.2500 0.7578
vn -0.6953 0.1484 0.7109
vn -0.5391 0.3750 0.7578
vn -0.7031 0.3828 0.6094
vn -0.8594 0.1250 0.5078
vn -0.8828 0.0859 0.4609
vn -0.7109 0.5156 0.4766
vn -0.6953 0.4297 0.5781
vn -0.9297 0.2422 0.2813
vn -0.8828 0.0859 0.4609
vn -0.5313 0.6484 0.5469
vn -0.6797 0.5391 0.5078
vn -0.8906 0.2813 0.3594
vn -0.7891 0.5000 0.3594
vn -0.7578 0.5313 0.3906
vn -0.8125 0.4375 0.3906
vn -0.5625 0.7734 0.2969
vn -0.8672 0.4063 0.2891
vn -0.7188 0.6563 0.2266
vn -0.9609 0.2578 0.1094
vn -0.9453 0.3047 0.0859
vn -0.9375 0.2188 0.2813
vn -0.8125 0.5234 0.2578
vn -0.7891 0.5000 0.3594
vn -0.5859 0.7969 0.1797
vn -0.5625 0.7734 0.2969
vn -0.7188 0.6563 0.2266
vn -0.8125 0.5234 0.2578
vt 0.5918 0.6328 0.0000
vt 0.5781 0.6504 0.0000
vt 0.5762 0.6192 0.0000
vt 0.5430 0.6563 0.0000
vt 0.5508 0.6114 0.0000
vt 0.5195 0.6094 0.0000
vt 0.5937 0.6680 0.0000
vt 0.6035 0.6348 0.0000
vt 0.4980 0.6406 0.0000
vt 0.4941 0.6621 0.0000
vt 0.5508 0.6797 0.0000
vt 0.4746 0.6387 0.0000
vt 0.4785 0.6348 0.0000
vt 0.5918 0.6172 0.0000
vt 0.4824 0.6094 0.0000
vt 0.4804 0.5957 0.0000
vt 0.4941 0.5625 0.0000
vt 0.5117 0.5508 0.0000
vt 0.4843 0.5196 0.0000
vt 0.5000 0.5176 0.0000
vt 0.5293 0.5860 0.0000
vt 0.5156 0.5918 0.0000
vt 0.4687 0.5215 0.0000
vt 0.5801 0.6094 0.0000
vt 0.5527 0.6016 0.0000
vt 0.5313 0.5489 0.0000
vt 0.6348 0.6055 0.0000
vt 0.6367 0.6074 0.0000
vt 0.5684 0.5664 0.0000
vt 0.4785 0.4629 0.0000
vt 0.6269 0.5938 0.0000
vt 0.6367 0.5938 0.0000
vt 0.5410 0.5625 0.0000
vt 0.5000 0.4805 0.0000
vt 0.5976 0.5703 0.0000
vt 0.5430 0.5293 0.0000
vt 0.5078 0.4629 0.0000
vt 0.5137 0.5000 0.0000
vt 0.5527 0.5391 0.0000
vt 0.5430 0.5000 0.0000
vt 0.5742 0.5352 0.0000
vt 0.6328 0.5782 0.0000
vt 0.5996 0.5528 0.0000
vt 0.5430 0.5000 0.0000
vt 0.5625 0.5274 0.0000
vt 0.5430 0.5293 0.0000
vt 0.5684 0.5313 0.0000
vt 0.5527 0.5391 0.0000
vt 0.5742 0.5352 0.0000
vt 0.5625 0.5274 0.0000
f 1/1/1 2/2/2 3/3/3
f 3/3/3 2/2/2 4/4/4
f 3/3/3 4/4/4 5/5/5
f 5/5/5 4/4/4 6/6/6
f 2/2/2 1/1/1 7/7/7
f 4/4/4 2/2/2 7/7/7
f 7/7/7 1/1/1 8/8/8
f 6/6/6 4/4/4 9/9/9
f 9/9/9 4/4/4 10/10/10
f 4/4/4 7/7/7 11/11/11
f 10/10/10 4/4/4 11/11/11
f 9/9/9 10/10/10 12/12/12
f 6/6/6 9/9/9 13/13/13
f 9/9/9 12/12/12 13/13/13
f 1/1/1 3/3/3 14/14/14
f 8/8/8 1/1/1 14/14/14
f 6/6/6 13/13/13 15/15/15
f 13/13/13 12/12/12 15/15/15
f 15/15/15 12/12/12 16/16/16
f 15/15/15 16/16/16 17/17/17
f 15/15/15 17/17/17 18/18/18
f 18/18/18 17/17/17 19/19/19
f 18/18/18 19/19/19 20/20/20
f 5/5/5 6/6/6 21/21/21
f 6/6/6 15/15/15 22/22/22
f 15/15/15 18/18/18 22/22/22
f 19/19/19 17/17/17 23/23/23
f 3/3/3 5/5/5 24/24/24
f 14/14/14 3/3/3 24/24/24
f 5/5/5 21/21/21 25/25/25
f 24/24/24 5/5/5 25/25/25
f 18/18/18 20/20/20 26/26/26
f 21/21/21 18/18/18 26/26/26
f 8/8/8 14/14/14 27/27/27
f 14/14/14 24/24/24 27/27/27
f 8/8/8 27/27/27 28/28/28
f 24/24/24 25/25/25 29/29/29
f 19/19/19 23/23/23 30/30/30
f 27/27/27 24/24/24 31/31/31
f 32/32/32 27/27/27 31/31/31
f 25/25/25 21/21/21 33/33/33
f 21/21/21 26/26/26 33/33/33
f 29/29/29 25/25/25 33/33/33
f 20/20/20 19/19/19 34/34/34
f 19/19/19 30/30/30 34/34/34
f 24/24/24 29/29/29 35/35/35
f 31/31/31 24/24/24 35/35/35
f 26/26/26 20/20/20 36/36/36
f 33/33/33 26/26/26 36/36/36
f 34/34/34 30/30/30 37/37/37
f 20/20/20 34/34/34 38/38/38
f 36/36/36 20/20/20 38/38/38
f 34/34/34 37/37/37 38/38/38
f 29/29/29 33/33/33 39/39/39
f 33/33/33 36/36/36 39/39/39
f 36/36/36 38/38/38 40/40/40
f 38/38/38 37/37/37 40/40/40
f 35/35/35 29/29/29 41/41/41
f 29/29/29 39/39/39 41/41/41
f 32/32/32 31/31/31 42/42/42
f 31/31/31 35/35/35 42/42/42
f 35/35/35 41/41/41 43/43/43
f 42/42/42 35/35/35 43/43/43
f 36/36/36 40/40/40 44/44/44
f 36/36/36 44/44/44 45/45/45
f 46/46/46 47/47/47 48/48/48
f 48/48/48 47/47/47 49/49/49
f 47/47/47 46/46/46 50/50/50
